<?xml version="1.0" standalone="no"?>
<!DOCTYPE svg PUBLIC "-//W3C//DTD SVG 1.1//EN" "http://www.w3.org/Graphics/SVG/1.1/DTD/svg11.dtd" >
<svg xmlns="http://www.w3.org/2000/svg">
<metadata>Generated by IcoMoon</metadata>
<defs>
<font id="icomoon" horiz-adv-x="1024">
<font-face units-per-em="1024" ascent="960" descent="-64" />
<missing-glyph horiz-adv-x="1024" />
<glyph unicode="&#x20;" horiz-adv-x="512" d="" />
<glyph unicode="&#xe900;" d="M-4169.143 1545.143h15603.81v-2730.667h-15603.81z" />
<glyph unicode="&#xe901;" d="M871.229 828.099h-131.901v97.768c-0.714 18.315-15.733 32.891-34.158 32.891s-33.444-14.577-34.156-32.827l-0.002-0.065v-97.768h-318.025v97.768c-0.996 18.076-15.897 32.357-34.133 32.357s-33.137-14.281-34.129-32.269l-0.004-0.088v-97.768h-131.998c-70.82-0.194-128.175-57.566-128.341-128.374v-605.444c0.194-70.82 57.566-128.175 128.374-128.341h718.474c70.824 0.166 128.196 57.521 128.39 128.323v605.446c-0.166 70.841-57.549 128.224-128.374 128.39h-0.016zM152.771 759.784h131.901v-47.104c0.714-18.315 15.733-32.891 34.158-32.891s33.444 14.577 34.156 32.827l0.002 0.065v47.104h316.855v-47.104c0.996-18.076 15.897-32.357 34.133-32.357s33.137 14.281 34.129 32.269l0.004 0.088v47.104h131.95c32.963 0 60.075-27.112 60.075-60.075v-114.249h-837.486v114.249c0 32.963 27.112 60.075 60.075 60.075zM871.229 34.206h-718.458c-33.144 0.11-59.985 26.935-60.123 60.061v421.706h838.607v-421.693c0-32.963-27.112-60.075-60.075-60.075zM287.061 466.53c-65.975 0-120.149-54.126-120.149-118.979 0-64.756 54.126-118.93 120.101-118.93s118.979 51.834 118.979 117.76c0 65.975-53.004 120.149-118.979 120.149zM287.061 295.765c-28.282 0-50.712 23.552-50.712 51.834s23.601 51.785 50.712 51.785c27.063 0 50.615-23.552 50.615-51.785 0-28.282-22.382-51.834-50.664-51.834zM337.676 176.786h-102.449c-18.076-0.996-32.357-15.897-32.357-34.133s14.281-33.137 32.269-34.129l0.088-0.004h102.449c18.076 0.996 32.357 15.897 32.357 34.133s-14.281 33.137-32.269 34.129l-0.088 0.004zM580.315 176.786h-102.449c-18.076-0.996-32.357-15.897-32.357-34.133s14.281-33.137 32.269-34.129l0.088-0.004h102.4c18.076 0.996 32.357 15.897 32.357 34.133s-14.281 33.137-32.269 34.129l-0.088 0.004zM580.315 380.562h-102.449c-18.315-0.714-32.891-15.733-32.891-34.158s14.577-33.444 32.827-34.156l0.065-0.002h102.4c18.076 0.996 32.357 15.897 32.357 34.133s-14.281 33.137-32.269 34.129l-0.088 0.004zM822.955 176.786h-102.498c-18.076-0.996-32.357-15.897-32.357-34.133s14.281-33.137 32.269-34.129l0.088-0.004h102.498c18.076 0.996 32.357 15.897 32.357 34.133s-14.281 33.137-32.269 34.129l-0.088 0.004zM822.955 380.562h-102.498c-18.315-0.714-32.891-15.733-32.891-34.158s14.577-33.444 32.827-34.156l0.065-0.002h102.498c18.076 0.996 32.357 15.897 32.357 34.133s-14.281 33.137-32.269 34.129l-0.088 0.004z" />
<glyph unicode="&#xe902;" d="M-73.143 1057.524h1170.286v-1170.286h-1170.286z" />
<glyph unicode="&#xe903;" d="M-6314.667 1386.667h13653.333v-2389.333h-13653.333z" />
<glyph unicode="&#xe904;" d="M604.373 285.568l-112.853 28.16-4.565 18.133c77.269 13.867 117.333 37.163 119.168 38.229 5.603 3.423 9.398 9.33 9.853 16.151l0.003 0.062c0.026 0.392 0.041 0.85 0.041 1.312 0 6.53-2.994 12.361-7.684 16.195l-0.037 0.030c-0.555 0.427-52.651 44.331-52.651 195.755 0 134.144-32.341 202.155-96.171 202.155h-6.827c-21.547 20.523-39.509 30.251-84.011 30.251-58.581 0-186.965-58.539-186.965-232.405 0-151.467-52.139-195.328-52.352-195.541-5.035-3.757-8.261-9.698-8.261-16.392 0-7.415 3.958-13.907 9.876-17.476l0.092-0.051c1.792-1.109 41.515-24.576 119.296-38.4l-4.523-18.005-112.853-28.203c-76.948-19.59-132.95-88.266-132.95-170.021 0-0.107 0-0.214 0-0.321v0.017c0-0.025 0-0.055 0-0.086 0-11.264 9.131-20.395 20.395-20.395 0.030 0 0.060 0 0.090 0l696.315 0.085c11.311 0 20.48 9.169 20.48 20.48v0c0 80.64-54.613 150.699-132.907 170.24zM42.496 135.765c8.466 53.921 48.008 96.728 99.421 109.878l0.931 0.202 124.8 31.147c7.368 1.876 13.057 7.565 14.903 14.792l0.031 0.142 12.843 51.627c0.39 1.492 0.614 3.206 0.614 4.971 0 10.3-7.619 18.82-17.529 20.232l-0.109 0.013c-48.299 6.699-82.859 17.792-103.509 25.984 20.395 29.525 47.744 90.453 47.744 204.843 0 157.355 116.992 191.445 146.005 191.445 35.328 0 42.368-5.461 61.141-24.32 3.84-3.797 9.045-5.973 14.507-5.973h15.147c35.115 0 55.211-58.752 55.211-161.152 0-114.261 27.307-175.232 47.659-204.8-20.736-8.149-55.424-19.2-103.467-25.984-9.999-1.443-17.597-9.954-17.597-20.239 0-1.768 0.224-3.483 0.646-5.119l-0.031 0.142 12.885-51.755c1.89-7.35 7.575-13.021 14.792-14.86l0.142-0.031 124.757-31.147c52.35-13.368 91.891-56.189 100.254-109.363l0.098-0.76-652.288 0.085zM910.891 355.328c52.949-13.509 91.477-60.778 91.477-117.046 0-0.056 0-0.112 0-0.169v0.009c0-11.311-9.169-20.48-20.48-20.48v0l-230.4-0.128v40.96h207.317c-7.611 28.154-29.545 49.804-57.304 56.883l-0.552 0.119-80.725 20.224c-7.368 1.876-13.057 7.565-14.903 14.792l-0.031 0.142-9.173 36.736c-0.392 1.494-0.616 3.208-0.616 4.976 0 6.033 2.62 11.455 6.784 15.189l0.019 0.017c18.517 16.64 31.232 42.325 33.152 67.115 0.866 10.615 9.695 18.901 20.459 18.901 0.008 0 0.015 0 0.023 0h-0.001l4.992 38.4c-0.185-0.007-0.403-0.010-0.622-0.010-10.415 0-18.859 8.443-18.859 18.859 0 0.559 0.024 1.113 0.072 1.66l-0.005-0.071 2.389 49.067c0.277 5.271 2.507 9.974 5.973 13.44l9.813 9.813c2.859 3.029 7.381 7.893-2.688 23.253-8.832 13.525-24.789 20.096-48.853 20.096-12.032 0-37.12 0-59.179-15.787-3.26-2.352-7.328-3.771-11.727-3.797h-0.006c-30.933-0.299-51.115-5.973-60.032-16.896-2.271-5.802-4.422-10.466-6.796-14.995l0.396 0.829c-0.901-4.761-1.416-10.238-1.416-15.835 0-0.418 0.003-0.835 0.009-1.252l-0.001 0.063c0-8.021 2.731-32.725 4.437-46.421 0.106-0.782 0.167-1.685 0.167-2.603 0-11.264-9.131-20.395-20.395-20.395-0.029 0-0.057 0-0.086 0h0.004l3.755-38.187c10.667 0 21.888-7.424 22.741-18.048 1.92-24.405 13.781-48.981 31.701-65.792 3.978-3.745 6.455-9.045 6.455-14.924 0-1.761-0.222-3.47-0.64-5.101l0.031 0.142-9.557-38.4c-1.876-7.368-7.565-13.057-14.792-14.903l-0.142-0.031c-9.728-2.304-15.787-3.925-18.133-4.864-1.978-0.698-4.259-1.102-6.634-1.102-11.334 0-20.523 9.188-20.523 20.523 0 8.182 4.788 15.246 11.715 18.542l0.124 0.053c3.456 1.408 7.339 2.56 11.648 3.584l3.84 15.488c-16.421 18.654-28.276 41.715-33.582 67.179l-0.167 0.96c-13.234 5.273-22.801 17.156-24.683 31.459l-0.021 0.199-4.907 39.168c-0.193 1.48-0.304 3.193-0.304 4.93 0 14.62 7.814 27.414 19.493 34.435l0.181 0.101c-1.265 9.661-2.229 21.431-2.667 33.336l-0.021 0.712c0 10.88 0.981 20.309 2.987 28.757 0.431 1.827 1.046 3.435 1.845 4.93l-0.053-0.109c2.432 4.693 4.693 9.387 6.485 14.293 0.627 1.791 1.42 3.342 2.391 4.762l-0.044-0.069c15.701 23.040 44.715 34.987 88.576 36.352 31.147 19.755 63.36 19.755 77.568 19.755 47.787 0 71.637-20.992 83.157-38.613 24.107-36.864 8.96-62.336-2.219-74.24l-4.651-4.693-1.28-25.813c11.285-7.195 18.661-19.647 18.661-33.821 0-1.765-0.114-3.502-0.336-5.207l0.021 0.201-4.907-39.125c-1.767-13.768-10.308-25.209-22.121-31l-0.236-0.104c-5.545-27.51-18.104-51.473-35.727-70.724l0.1 0.111 3.413-13.568 68.821-17.195z" />
<glyph unicode="&#xe905;" d="M0 960h1024v-1024h-1024z" />
<glyph unicode="&#xe906;" glyph-name="ai-home" d="M853.49-58.109h-682.971c-16.042 0-29.063 13.019-29.063 29.063v442.1h-112.386c-11.755 0-22.349 7.077-26.854 17.946-4.505 10.854-2.019 23.352 6.308 31.664l482.933 482.933c11.334 11.349 29.745 11.349 41.094 0l482.933-482.919c8.312-8.312 10.796-20.81 6.308-31.664-4.505-10.869-15.099-17.946-26.854-17.946h-112.386v-442.115c0-16.056-13.019-29.063-29.061-29.063zM199.583 0.018h624.845v442.1c0 16.042 13.019 29.063 29.063 29.063h71.289l-412.776 412.776-412.776-412.776h71.289c16.042 0 29.063-13.019 29.063-29.063v-442.1z" />
<glyph unicode="&#xe907;" horiz-adv-x="964" d="M-17106.824 3128.471h19275.294v-3855.059h-19275.294v3855.059z" />
<glyph unicode="&#xe908;" d="M-10956.8 1574.4h16384v-2867.2h-16384z" />
<glyph unicode="&#xe909;" d="M214.272 591.258v-166.656c-0.014-54.965-19.873-105.289-52.802-144.2l0.27 0.328-45.67-57.088c-2.253-2.304-3.43-5.734-4.506-7.987-5.582-4.076-9.167-10.598-9.167-17.956 0-0.113 0.001-0.226 0.003-0.339v0.017c0-66.253 116.429-107.315 258.048-123.29-1.178-2.304-1.178-4.608-1.178-7.987 1.931-71.886 60.366-129.497 132.396-130.099h0.058c72.327 0.433 130.844 58.949 131.277 131.235v0.041c0 2.304 0 5.734-1.178 7.987 141.568 15.974 258.048 57.088 258.048 123.29-0.176 7.415-3.7 13.972-9.114 18.24l-0.051 0.039c-0.873 3.129-2.453 5.818-4.561 7.992l-45.666 57.083c-31.836 38.493-51.2 88.317-51.354 142.661v166.69c-0.144 115.993-73.457 214.827-176.256 252.835l-1.869 0.605c2.156 3.446 3.434 7.632 3.434 12.117 0 0.15-0.001 0.3-0.004 0.45v-0.022c0.001 0.137 0.001 0.299 0.001 0.462 0 56.497-45.8 102.298-102.298 102.298-0.144 0-0.289 0-0.433-0.001h0.022c-0.137 0.001-0.299 0.001-0.462 0.001-56.497 0-102.298-45.8-102.298-102.298 0-0.162 0-0.325 0.001-0.487v0.025c0-4.557 1.178-9.114 3.43-12.544-104.724-38.283-178.125-137.056-178.125-252.972 0-0.164 0-0.329 0-0.493v0.025zM577.28 67.328c0-46.848-38.758-85.658-85.555-85.658-47.179 0.317-85.341 38.478-85.657 85.627v3.46c25.641-2.171 55.492-3.408 85.632-3.408s59.989 1.237 89.502 3.664l-3.87-0.256v-3.43zM434.688 858.419c0 32 25.088 57.088 57.088 57.088 31.949 0 57.037-25.088 57.037-57.088v-2.253c-13.746 2.913-29.54 4.582-45.724 4.582-1.187 0-2.373-0.009-3.556-0.027l0.179 0.002c-3.43 0-5.683-1.178-7.936-1.178-2.304 1.178-5.734 1.178-7.987 1.178-17.152 0-33.126-1.178-49.152-4.608v2.304zM483.789 815.053c3.43 0 5.683 1.178 7.987 1.178 2.253-1.178 5.683-1.178 7.936-1.178 123.499-0.204 223.563-100.249 223.795-223.722v-166.729c0-62.822 21.658-124.416 61.645-172.442l45.67-57.088 2.253-2.253c-11.418-29.696-131.277-79.872-341.299-79.872-211.2 0-329.933 50.176-341.299 79.872l2.253 2.253 45.67 57.088c38.808 46.398 62.461 106.633 62.72 172.386v166.712c-1.178 123.341 99.328 223.744 222.618 223.744zM253.133 247.706c-0.629-2-0.991-4.3-0.991-6.684 0-10.15 6.563-18.766 15.676-21.838l0.162-0.048c67.328-20.531 130.099-37.683 223.744-37.683 90.214 0 150.733 15.974 214.682 34.304 9.797 2.694 16.874 11.523 16.874 22.004 0 2.323-0.348 4.564-0.994 6.676l0.042-0.161c-2.694 9.797-11.523 16.874-22.004 16.874-2.323 0-4.564-0.348-6.676-0.994l0.161 0.042c-62.771-18.278-117.606-31.949-200.96-31.949-87.859 0-144.947 14.848-210.022 35.379-13.722 3.482-26.317-3.43-29.696-15.923z" />
<glyph unicode="&#xe90a;" d="M-102.4 1062.4h1228.8v-1228.8h-1228.8z" />
<glyph unicode="&#xe90b;" d="M-15872 1699.556h18204.444v-3185.778h-18204.444z" />
<glyph unicode="&#xe90c;" d="M444.928 960h134.144c14.646-0.33 26.95-9.991 31.223-23.258l0.066-0.238 28.615-100.124c20.082-6.542 39.367-14.336 57.856-23.78l90.908 50.404c4.579 2.495 10.028 3.962 15.82 3.962 9.064 0 17.289-3.593 23.329-9.433l-0.009 0.009 94.322-94.663c5.761-6.016 9.307-14.193 9.307-23.198 0-5.705-1.423-11.077-3.934-15.781l0.088 0.181-50.404-91.25c9.33-18.318 17.294-37.547 23.836-57.515l100.124-28.615c13.653-3.812 23.893-17.465 23.78-31.63v-134.144c-0.398-14.722-10.2-27.051-23.598-31.225l-0.238-0.064-99.726-28.274c-6.599-20.025-14.791-39.424-24.178-57.856l50.404-91.25c2.423-4.524 3.846-9.896 3.846-15.6 0-9.005-3.546-17.182-9.319-23.21l0.012 0.012-94.322-94.663c-6.030-5.831-14.255-9.424-23.319-9.424-5.792 0-11.242 1.467-15.997 4.050l0.177-0.088-90.908 50.404c-16.061-8.471-35.186-16.65-54.997-23.34l-2.859-0.838-28.615-99.726c-4.268-13.616-16.58-23.402-31.239-23.835l-0.049-0.001h-134.201c-14.722 0.398-27.051 10.2-31.225 23.598l-0.064 0.238-28.615 99.726c-22.67 7.529-41.795 15.708-60.102 25.242l2.246-1.064-90.908-50.404c-4.579-2.495-10.028-3.962-15.82-3.962-9.064 0-17.289 3.593-23.329 9.433l0.009-0.009-94.322 94.663c-5.761 6.016-9.307 14.193-9.307 23.198 0 5.705 1.423 11.077 3.934 15.781l-0.088-0.181 50.404 91.25c-8.441 16.037-16.619 35.162-23.327 54.964l-0.851 2.892-99.726 28.274c-13.585 4.266-23.347 16.553-23.778 31.183l-0.001 0.049v134.258c0.264 14.854 10.104 27.341 23.598 31.566l0.239 0.064 100.124 28.615c6.485 19.911 14.45 39.196 23.78 57.515l-50.404 91.25c-2.423 4.524-3.846 9.896-3.846 15.6 0 9.005 3.546 17.182 9.319 23.21l-0.012-0.012 94.322 94.663c6.030 5.831 14.255 9.424 23.319 9.424 5.792 0 11.242-1.467 15.997-4.050l-0.177 0.088 90.908-50.404c16.053 8.368 35.187 16.438 55.002 23.016l2.854 0.821 28.615 100.124c3.584 11.435 17.067 23.495 31.289 23.438zM469.447 894.635l-26.169-92.274c-3.259-11.042-11.806-19.551-22.635-22.697l-0.235-0.058c-27.534-7.623-53.476-18.432-77.938-32.427-9.671-5.518-22.187-5.689-32.028-0.284l-84.423 46.99-59.904-59.904 46.99-84.139c2.565-4.617 4.075-10.125 4.075-15.986s-1.51-11.369-4.162-16.157l0.087 0.171c-13.938-24.462-25.088-50.745-32.654-78.279-3.189-10.969-11.57-19.463-22.235-22.75l-0.236-0.063-92.615-26.226v-84.764l92.615-26.567c10.834-3.277 19.194-11.637 22.41-22.235l0.061-0.236c7.566-27.534 18.773-53.817 32.654-78.279 2.575-4.624 4.090-10.142 4.090-16.014s-1.516-11.391-4.177-16.185l0.087 0.171-46.99-84.423 59.904-59.563 84.423 46.99c4.544 2.48 9.953 3.938 15.703 3.938 5.999 0 11.628-1.587 16.488-4.365l-0.163 0.086c24.462-13.938 50.404-25.088 77.938-32.711 10.809-2.901 19.74-11.719 22.812-22.414l26.226-92.615h85.106l26.169 92.615c3.376 10.89 11.89 19.253 22.634 22.356l0.235 0.058c27.534 7.623 53.476 18.773 77.938 32.711 9.671 5.575 22.187 5.689 32.028 0.341l84.423-46.99 59.904 59.563-46.99 84.423c-2.575 4.624-4.090 10.142-4.090 16.014s1.516 11.391 4.177 16.185l-0.087-0.171c13.938 24.462 25.088 50.745 32.711 78.279 3.267 10.822 11.604 19.178 22.178 22.409l0.236 0.062 92.615 26.567v84.764l-92.615 26.169c-10.89 3.376-19.253 11.89-22.356 22.634l-0.058 0.235c-8.421 29.808-19.576 55.796-33.59 79.917l0.879-1.638c-2.565 4.617-4.075 10.125-4.075 15.986s1.51 11.369 4.162 16.157l-0.087-0.171 46.99 84.139-59.904 59.904-84.423-46.99c-4.544-2.48-9.953-3.938-15.703-3.938-5.999 0-11.628 1.587-16.488 4.365l0.163-0.086c-22.387 13.015-48.27 24.040-75.549 31.737l-2.388 0.576c-11.053 3.232-19.581 11.76-22.753 22.578l-0.059 0.235-26.169 92.274h-85.163zM512 687.673c132.251-0.291 239.382-107.422 239.673-239.645v-0.028c-0.291-132.251-107.422-239.382-239.645-239.673h-0.028c-132.251 0.291-239.382 107.422-239.673 239.645v0.028c0.291 132.251 107.422 239.382 239.645 239.673h0.028zM512 622.251c-0.152 0-0.332 0.001-0.513 0.001-95.985 0-173.796-77.811-173.796-173.796 0-0.16 0-0.321 0.001-0.481v0.025c0-0.152-0.001-0.333-0.001-0.513 0-95.985 77.811-173.796 173.796-173.796 0.18 0 0.361 0 0.541 0.001h-0.028c0.152 0 0.333-0.001 0.513-0.001 95.985 0 173.796 77.811 173.796 173.796 0 0.18 0 0.361-0.001 0.541v-0.028c0 0.152 0.001 0.333 0.001 0.513 0 95.985-77.811 173.796-173.796 173.796-0.18 0-0.361 0-0.541-0.001h0.028z" />
<glyph unicode="&#xe90d;" d="M-170.667 1130.667h1365.333v-1365.333h-1365.333z" />
<glyph unicode="&#xe90e;" horiz-adv-x="964" d="M481.875 960c-265.908 0-481.867-218.748-481.867-487.109 1.28-18.544 17.919-34.071 36.28-34.071 17.919 0 35 15.542 35.854 34.071 0 229.109 183.108 413.772 409.749 413.772 152.374 0 290.653-84.994 361.507-219.175h-132.733c-19.214 0.427-36.707-16.822-36.707-36.235s17.493-37.118 36.707-36.676h216.813c18.772 0 36.28 17.264 36.28 36.676v219.159c0.411 19.412-17.493 37.53-36.707 37.103-18.772 0-35.854-18.117-35.854-37.103v-120.817c-86.655 141.525-240.736 230.405-409.322 230.405zM927.036 506.977c-17.934 0-34.574-15.954-35.854-34.086 0-229.094-182.681-414.213-409.307-414.213-152.801 0-291.095 85.436-361.507 219.19h132.733c18.788 0 36.707 17.264 36.707 36.661 0 19.428-17.919 36.692-36.707 36.692h-216.813c-19.214 0-36.28-17.706-36.28-36.692v-219.159c-0.427-19.428 17.066-37.56 36.707-37.118 18.772 0 35.854 17.675 35.427 37.118v120.802c87.066-141.51 241.147-230.405 409.734-230.405 265.481 0 481.867 218.321 481.867 487.124-1.28 18.559-18.361 34.513-36.707 34.086z" />
<glyph unicode="&#xe90f;" horiz-adv-x="964" d="M-240.941 1200.941h1445.647v-1445.647h-1445.647v1445.647z" />
<glyph unicode="&#xe910;" horiz-adv-x="964" d="M-17106.824 3128.471h19275.294v-3855.059h-19275.294v3855.059z" />
<glyph unicode="&#xe911;" horiz-adv-x="964" d="M481.875 960c-265.908 0-481.867-218.748-481.867-487.109 1.28-18.544 17.919-34.071 36.28-34.071 17.919 0 35 15.542 35.854 34.071 0 229.109 183.108 413.772 409.749 413.772 152.374 0 290.653-84.994 361.507-219.175h-132.733c-19.214 0.427-36.707-16.822-36.707-36.235s17.493-37.118 36.707-36.676h216.813c18.772 0 36.28 17.264 36.28 36.676v219.159c0.411 19.412-17.493 37.53-36.707 37.103-18.772 0-35.854-18.117-35.854-37.103v-120.817c-86.655 141.525-240.736 230.405-409.322 230.405zM927.036 506.977c-17.934 0-34.574-15.954-35.854-34.086 0-229.094-182.681-414.213-409.307-414.213-152.801 0-291.095 85.436-361.507 219.19h132.733c18.788 0 36.707 17.264 36.707 36.661 0 19.428-17.919 36.692-36.707 36.692h-216.813c-19.214 0-36.28-17.706-36.28-36.692v-219.159c-0.427-19.428 17.066-37.56 36.707-37.118 18.772 0 35.854 17.675 35.427 37.118v120.802c87.066-141.51 241.147-230.405 409.734-230.405 265.481 0 481.867 218.321 481.867 487.124-1.28 18.559-18.361 34.513-36.707 34.086z" />
<glyph unicode="&#xe912;" horiz-adv-x="964" d="M-240.941 1200.941h1445.647v-1445.647h-1445.647v1445.647z" />
<glyph unicode="&#xe913;" horiz-adv-x="658" d="M-13238.857 2788.571h14774.857c121.187 0 219.429-98.242 219.429-219.429v-4242.286c0-121.187-98.242-219.429-219.429-219.429h-14774.857c-121.187 0-219.429 98.242-219.429 219.429v4242.286c0 121.187 98.242 219.429 219.429 219.429z" />
<glyph unicode="&#xe914;" horiz-adv-x="658" d="M161.346-35.712l417.716 417.716c4.654 4.654 6.981 9.308 11.636 13.963 2.327 2.327 2.327 4.654 4.654 6.981s2.327 6.981 4.654 9.308c2.327 2.327 2.327 6.981 2.327 9.308s2.327 4.654 2.327 9.308c0 4.654 2.327 11.636 2.327 16.29 0 0 0 0 0 2.327 0 4.654 0 11.636-2.327 16.29 0 2.327-2.327 4.654-2.327 6.981s-2.327 6.981-2.327 9.308c-2.327 2.327-2.327 6.981-4.654 9.308s-2.327 4.654-4.654 6.981-6.981 9.308-11.636 13.963c0 0 0 0 0 2.327l-420.043 417.716c-36.846 36.846-94.636 36.846-131.482 0-18.617-18.617-27.537-41.5-27.537-64.771s9.308-46.154 27.537-64.771l296.319-294.767c33.743-33.355 33.743-88.042 0-121.785l-296.319-294.767c-18.617-18.617-27.537-41.5-27.537-64.771 0-18.229 5.818-36.070 17.065-51.972 33.355-47.706 102.781-51.584 144.281-10.472z" />
<glyph unicode="&#xe915;" horiz-adv-x="658" d="M-585.143 1325.714h1755.429v-1755.429h-1755.429v1755.429z" />
<glyph unicode="&#xe916;" horiz-adv-x="975" d="M-11995.429 1837.714h13653.333c107.722 0 195.048-87.326 195.048-195.048v-25356.19c0-107.722-87.326-195.048-195.048-195.048h-13653.333c-107.722 0-195.048 87.326-195.048 195.048v25356.19c0 107.722 87.326 195.048 195.048 195.048z" />
<glyph unicode="&#xe917;" horiz-adv-x="975" d="M880.909 123.388l-0.047 0.006v384.053h55.066v-384.053c0-75.859-61.709-138.971-137.618-138.971h-660.691c-75.862 0-137.618 63.061-137.618 138.971v660.691c0 75.905 61.709 136.303 137.618 136.303h385.418l-0.048-55.017h-385.418c-45.516 0-82.55-35.676-82.55-81.242l0.048-660.741c0-45.516 36.984-83.956 82.55-83.956h660.741c45.516 0 82.55 38.39 82.55 83.956zM942.955 928.771v-0.004c20.844-20.794 32.284-48.424 32.284-77.896 0-29.423-11.488-57.053-32.284-77.848l-369.323-369.323c-3.49-3.49-7.901-6.011-12.748-7.223l-155.748-38.924c-2.23-0.582-4.459-0.824-6.689-0.824-7.174 0-14.203 2.811-19.438 8.047-6.786 6.883-9.549 16.821-7.223 26.176l38.876 155.748c1.163 4.798 3.684 9.209 7.223 12.748l369.323 369.323c41.642 41.639 114.157 41.639 155.748 0zM540.139 448.063l305.478 305.577-77.848 77.848-305.527-305.527-25.933-103.83 103.83 25.933zM904.027 812c10.374 10.421 16.142 24.188 16.142 38.924s-5.769 28.551-16.142 38.924c-20.746 20.795-57.053 20.795-77.848 0l-19.438-19.438 77.848-77.848 19.438 19.438z" />
<glyph unicode="&#xe918;" horiz-adv-x="975" d="M-97.524 1057.524h1170.286v-1170.286h-1170.286v1170.286z" />
<glyph unicode="&#xe919;" horiz-adv-x="1138" d="M1130.208 912.544l0.007 0.002c13.385-29.045 8.783-62.164-12.062-86.501l-386.745-449.968v-188.084c0-13.597-6.771-26.241-18.093-33.807l-243.79-162.526c-6.825-4.497-14.655-6.825-22.538-6.825-6.561 0-13.174 1.587-19.152 4.814-13.226 7.089-21.479 20.844-21.479 35.817v350.61l-386.744 449.967c-20.792 24.337-25.448 57.456-12.062 86.501 13.491 29.256 41.955 47.456 74.333 47.456h973.994c32.378 0 60.895-18.199 74.333-47.456zM659.978 417.664l396.536 461.074h-974.847l396.104-461.074c6.349-7.406 9.84-16.771 9.84-26.505v-289.771l162.526 108.351v181.42c0 9.734 3.492 19.098 9.84 26.505z" />
<glyph unicode="&#xe91a;" horiz-adv-x="1138" d="M-113.778 1130.667h1365.333v-1365.333h-1365.333v1365.333z" />
<glyph unicode="&#xe91b;" glyph-name="ai-agenda-options" d="M709.565 642.783h-103.884v76.986c0 14.841-12.058 26.899-26.899 26.899s-26.899-12.058-26.899-26.899v-76.986h-250.435v76.986c0 14.841-12.058 26.899-26.899 26.899s-26.899-12.058-26.899-26.899v-76.986h-103.884c-55.652 0-101.101-45.449-101.101-101.101v-476.754c0-55.652 45.449-101.101 101.101-101.101h565.797c55.652 0 101.101 45.449 101.101 101.101v476.754c0 55.652-45.449 101.101-101.101 101.101zM143.768 588.986h103.884v-37.101c0-14.841 12.058-26.899 26.899-26.899s26.899 12.058 26.899 26.899v37.101h249.507v-37.101c0-14.841 12.058-26.899 26.899-26.899s26.899 12.058 26.899 26.899v37.101h103.884c25.971 0 47.304-21.333 47.304-47.304v-89.971h-659.478v89.971c0 25.971 21.333 47.304 47.304 47.304zM709.565 17.623h-565.797c-25.971 0-47.304 21.333-47.304 47.304v332.058h660.406v-332.058c0-25.971-21.333-47.304-47.304-47.304zM853.333 178.393v55.293c18.306 6.546 31.536 24.122 31.536 44.575v332.058h-31.536v54.725h30.609v89.971c0 25.971-21.333 47.304-47.304 47.304h-103.884v-37.101c0-14.841-12.058-26.899-26.899-26.899s-26.899 12.058-26.899 26.899v37.101h-249.507v-37.101c0-14.841-12.058-26.899-26.899-26.899s-26.899 12.058-26.899 26.899v37.101h-103.884c-25.971 0-47.304-21.333-47.304-47.304v-51.014h-53.797v51.014c0 55.652 45.449 101.101 101.101 101.101h103.884v76.986c0 14.841 12.058 26.899 26.899 26.899s26.899-12.058 26.899-26.899v-76.986h250.435v76.986c0 14.841 12.058 26.899 26.899 26.899s26.899-12.058 26.899-26.899v-76.986h103.884c55.652 0 101.101-45.449 101.101-101.101v-476.754c0-50.291-37.114-92.25-85.333-99.868zM289.391 129.855h-80.696c-14.841 0-26.899-12.058-26.899-26.899s12.058-26.899 26.899-26.899h80.696c14.841 0 26.899 12.058 26.899 26.899s-12.058 26.899-26.899 26.899zM289.391 290.133h-80.696c-14.841 0-26.899-12.058-26.899-26.899s12.058-26.899 26.899-26.899h80.696c14.841 0 26.899 12.058 26.899 26.899s-12.058 26.899-26.899 26.899zM480.464 129.855h-80.696c-14.841 0-26.899-12.058-26.899-26.899s12.058-26.899 26.899-26.899h80.696c14.841 0 26.899 12.058 26.899 26.899s-12.058 26.899-26.899 26.899zM480.464 290.319h-80.696c-14.841 0-26.899-12.058-26.899-26.899s12.058-26.899 26.899-26.899h80.696c14.841 0 26.899 12.058 26.899 26.899s-12.058 26.899-26.899 26.899zM671.536 129.855h-80.696c-14.841 0-26.899-12.058-26.899-26.899s12.058-26.899 26.899-26.899h80.696c14.841 0 26.899 12.058 26.899 26.899s-12.058 26.899-26.899 26.899zM671.536 290.319h-80.696c-14.841 0-26.899-12.058-26.899-26.899s12.058-26.899 26.899-26.899h80.696c14.841 0 26.899 12.058 26.899 26.899s-12.058 26.899-26.899 26.899z" />
<glyph unicode="&#xe91c;" glyph-name="ai-gps" d="M11.7021002,2.35543256 C13.6815649,2.5153549 15.5837905,3.36205693 17.0203958,4.74815486 C18.5370584,6.21153489 19.4670593,8.20174506 19.6378459,10.2916687 C20.198059,10.2916687 20.7582717,10.2916687 21.3184793,10.2916687 C21.6900054,10.2916687 22,10.6016876 22,10.9731895 C22,11.3447156 21.6900054,11.6547102 21.3184793,11.6547102 C21.0247682,11.6547102 20.7310571,11.6547102 20.437346,11.6547102 C20.1709786,11.6547102 19.90461,11.6547102 19.6382407,11.6547102 C19.508752,13.2650315 18.9344074,14.8475253 17.9526918,16.1332749 C17.2470258,17.0575144 16.3923502,17.8508288 15.3842836,18.4386161 C14.3521449,19.0404233 13.2178023,19.4072031 12.0349501,19.5550201 C11.9240579,19.5688796 11.8130869,19.5804392 11.7021002,19.5897274 C11.7021002,20.165978 11.7021002,20.7422287 11.7021002,21.3184793 C11.7021002,21.6899811 11.3920813,22 11.0205795,22 C10.6490777,22 10.3390588,21.6900054 10.3390588,21.3184793 C10.3390588,21.0247925 10.3390588,20.7310571 10.3390588,20.4373703 C10.3390588,20.1553328 10.3390588,19.8732952 10.3390588,19.5912577 C8.57560587,19.4489564 6.87485161,18.7532884 5.49721915,17.620986 C3.70455897,16.147552 2.59393952,13.960497 2.40345266,11.6547102 C1.82947161,11.6547102 1.25549343,11.6547102 0.68152072,11.6547102 C0.31001891,11.6547102 0,11.3447156 0,10.9731895 C0,10.6016876 0.31001891,10.2916687 0.68152072,10.2916687 C0.97523181,10.2916687 1.2689429,10.2916687 1.56265399,10.2916687 C1.84258844,10.2916687 2.12252288,10.2916687 2.40245703,10.2916687 C2.55303838,8.41991788 3.32259466,6.6181193 4.57945414,5.20732945 C6.04921967,3.55755295 8.14253767,2.53143901 10.3390588,2.3549561 C10.3390588,1.7971443 10.3390588,1.23933251 10.3390588,0.68152072 C10.3390588,0.31001891 10.6490777,0 11.0205795,0 C11.3921056,0 11.7021002,0.31001891 11.7021002,0.68152072 C11.7021002,0.97523181 11.7021002,1.2689429 11.7021002,1.56265399 C11.7021002,1.82691352 11.7021002,2.09117304 11.7021002,2.35543256 Z M11.7021002,3.71971909 C11.7021002,4.21224651 11.7021002,4.70477393 11.7021002,5.19730135 C11.7021002,5.56880317 11.3920813,5.87882208 11.0205795,5.87882208 C10.6490777,5.87882208 10.3390588,5.56880317 10.3390588,5.19730135 C10.3390588,4.90359026 10.3390588,4.60987917 10.3390588,4.31616808 C10.3390588,4.11735379 10.3390588,3.91853949 10.3390588,3.71972519 C10.2057587,3.73089049 10.0726672,3.74533721 9.9399067,3.76306534 C10.0002943,3.75496011 10.0606819,3.74683054 10.1210695,3.73872531 C9.4918312,3.82542448 8.87215844,3.98412145 8.28145036,4.21844288 C8.24133799,4.23436126 8.20122563,4.25035265 8.16138101,4.26692821 C8.05321393,4.31190858 8.33548521,4.19108469 8.17544954,4.26150039 C8.10654293,4.29180372 8.03787972,4.32266687 7.96987369,4.35494174 C7.8342754,4.41924809 7.7000645,4.48662128 7.56831194,4.55854606 C7.29670159,4.70680116 7.03275836,4.86936819 6.78018191,5.0482187 C6.71940486,5.0912762 6.65894424,5.13482051 6.5993842,5.17953314 C6.57387585,5.19868874 6.5483675,5.21784434 6.52307822,5.23731636 C6.69888622,5.10196147 6.59843494,5.17892464 6.56039148,5.20917929 C6.46062171,5.28855211 6.36223933,5.3697261 6.26638831,5.45377221 C6.06682443,5.62872831 5.87485465,5.81249551 5.69359448,6.00643683 C5.5993499,6.1073019 5.50705252,6.21004115 5.41813841,6.31565252 C5.37707679,6.36440559 5.33630724,6.4134264 5.29641394,6.46315307 C5.27645512,6.48800424 5.25652064,6.51287975 5.2368539,6.53799865 C5.15879543,6.63771974 5.34185677,6.40003939 5.26538041,6.50100181 C5.10463888,6.71327118 4.9531709,6.93269651 4.81443275,7.16000801 C4.67506176,7.38834179 4.54574321,7.62297964 4.43010374,7.86426231 C4.39758547,7.93209797 4.36560268,8.00020136 4.3350316,8.06893759 C4.32188799,8.09846204 4.30876872,8.12796215 4.29601454,8.15763264 C4.24528993,8.27553573 4.36314433,7.99516297 4.31434258,8.1139423 C4.26505403,8.23391429 4.21795608,8.35481119 4.17460649,8.4770468 C3.99103402,8.99488085 3.86115564,9.5293878 3.78613968,10.0736308 C3.79424491,10.0132432 3.80237448,9.9528556 3.81047971,9.892468 C3.79274951,10.0252439 3.77830149,10.1583519 3.76713563,10.2916687 C4.24385221,10.2916687 4.7205665,10.2916687 5.19727701,10.2916687 C5.56877883,10.2916687 5.87879774,10.6016876 5.87879774,10.9731895 C5.87879774,11.3447156 5.56877883,11.6547102 5.19727701,11.6547102 C4.90356592,11.6547102 4.60985483,11.6547102 4.31614374,11.6547102 C4.13314125,11.6547102 3.95013876,11.6547102 3.76713635,11.6547102 C3.77830245,11.7880197 3.7927501,11.9211196 3.81047971,12.0538866 C3.80237448,11.9935233 3.79424491,11.9331114 3.78613968,11.8727238 C3.87283885,12.5019621 4.03153582,13.1216349 4.26585725,13.7123429 C4.28177563,13.7524796 4.29776702,13.7925677 4.31434258,13.8324366 C4.35929861,13.9406037 4.23849906,13.6583324 4.30889042,13.8183681 C4.33919375,13.8872504 4.37008124,13.9559136 4.40233177,14.0239196 C4.46666246,14.1595422 4.53403565,14.2937531 4.60596043,14.4255057 C4.75421553,14.6970917 4.91678256,14.9610349 5.09563307,15.2136114 C5.13869057,15.2743884 5.18221054,15.3348734 5.22694751,15.3944091 C5.24612745,15.4199418 5.26528305,15.4454501 5.28473073,15.4707394 C5.14940018,15.2949314 5.22633901,15.3953827 5.25659366,15.4334262 C5.33596648,15.5331959 5.41714047,15.631554 5.50118658,15.727405 C5.67614268,15.9269689 5.85990988,16.118963 6.0538512,16.3001988 C6.15471627,16.3944677 6.25745552,16.4867408 6.36306689,16.5756549 C6.41181996,16.6167408 6.46084077,16.6574861 6.51056744,16.6973794 C6.53544295,16.7173382 6.56031846,16.7372727 6.58541302,16.7569394 C6.68513411,16.8349735 6.44745376,16.6519122 6.54841618,16.7283885 C6.76068555,16.8891301 6.98011088,17.0405981 7.20742238,17.1793362 C7.43575616,17.3187072 7.67039401,17.4480014 7.91167668,17.5636652 C7.97951234,17.5961835 8.04764007,17.6281419 8.1163763,17.658713 C8.14587641,17.6718566 8.17537652,17.6849759 8.20504701,17.6977301 C8.3229501,17.7484547 8.04257734,17.6306003 8.16135667,17.679402 C8.28130432,17.7286906 8.40220122,17.7758129 8.52446117,17.8191381 C9.0422952,18.0027349 9.5767778,18.1326133 10.1210452,18.2076293 C10.0606576,18.1994997 10.00027,18.1913945 9.9398823,18.1832649 C10.0726509,18.2009941 10.2057506,18.2154415 10.3390588,18.2266071 C10.3390588,17.7520034 10.3390588,17.2773997 10.3390588,16.802796 C10.3390588,16.4312699 10.6490777,16.1212753 11.0205795,16.1212753 C11.3921056,16.1212753 11.7021002,16.4312699 11.7021002,16.802796 C11.7021002,17.0964828 11.7021002,17.3902182 11.7021002,17.6839049 C11.7021002,17.8648063 11.7021002,18.0457077 11.7021002,18.2266091 C11.8354165,18.2154433 11.9685243,18.2009952 12.101301,18.1832649 C12.0409134,18.1913945 11.9805258,18.1994997 11.9201382,18.2076293 C12.5493765,18.1209058 13.1690249,17.9622088 13.759733,17.7278874 C13.7998697,17.7119933 13.8399577,17.6959776 13.8798267,17.679402 C13.9879937,17.634446 13.7057225,17.7552699 13.8657581,17.6848542 C13.9346404,17.6545509 14.0033036,17.6236634 14.0713096,17.5914128 C14.2069323,17.5270822 14.3411432,17.459709 14.4728957,17.3877842 C14.7444817,17.2395291 15.008425,17.0769864 15.2610014,16.8981359 C15.3217785,16.8550784 15.3822391,16.8115341 15.4417991,16.7668214 C15.4673075,16.7476658 15.4928402,16.7285102 15.5181051,16.7090382 C15.3423214,16.8443688 15.4427727,16.7674299 15.4808162,16.7371753 C15.580586,16.6578025 15.678944,16.5766041 15.774795,16.492558 C15.9743589,16.3176263 16.1663287,16.1338347 16.3475888,15.9399178 C16.4418578,15.839077 16.5341308,15.7363134 16.6230449,15.6307021 C16.6641065,15.581949 16.7048761,15.5329282 16.7447694,15.4832015 C16.7647039,15.458326 16.7846627,15.4334505 16.8043294,15.4083559 C16.8823635,15.3086348 16.6993022,15.5463152 16.7757786,15.4453528 C16.9364958,15.2330834 17.0879637,15.0136581 17.2267019,14.7863466 C17.3660972,14.5579885 17.4953914,14.3233506 17.6110552,14.0820679 C17.6435735,14.0142323 17.675532,13.9461289 17.706103,13.8773927 C17.7192467,13.8478925 17.7323659,13.8183681 17.7451201,13.7886976 C17.7958447,13.6708189 17.677966,13.9511916 17.7267921,13.8324123 C17.7760806,13.7124403 17.8231786,13.5915434 17.8665281,13.4693078 C18.050125,12.9514494 18.1800033,12.4169668 18.254995,11.8726995 C18.2468897,11.9330871 18.2387845,11.993499 18.2306549,12.0538623 C18.2483802,11.9210944 18.2628459,11.7880227 18.2740733,11.6547102 C17.7836294,11.6547102 17.2931864,11.6547102 16.8027473,11.6547102 C16.4312212,11.6547102 16.1212266,11.3447156 16.1212266,10.9731895 C16.1212266,10.6016876 16.4312212,10.2916687 16.8027473,10.2916687 C17.0964584,10.2916687 17.3901695,10.2916687 17.6838806,10.2916687 C17.8806131,10.2916687 18.0773463,10.2916687 18.2740799,10.2916687 C18.2628654,10.1583399 18.248413,10.025252 18.2307036,9.892468 C18.2388332,9.9528556 18.2469384,10.0132432 18.2550436,10.0736308 C18.1683445,9.4443924 18.0096475,8.82474407 17.7753261,8.23403599 C17.7594077,8.19389928 17.7434163,8.15381126 17.7268407,8.1139423 C17.6818847,8.00577522 17.8027086,8.2880465 17.7322929,8.12801083 C17.7019896,8.05912856 17.6711021,7.99044101 17.6388272,7.92243498 C17.5745209,7.78683669 17.5071477,7.65262579 17.4352229,7.52087323 C17.2869678,7.24928722 17.1244251,6.98534399 16.9455746,6.73276754 C16.9025171,6.67196615 16.8589728,6.61152987 16.8142358,6.55196983 C16.7950802,6.52646148 16.7759246,6.50095313 16.7564769,6.47566385 C16.8918075,6.65147185 16.8148687,6.55102057 16.7845897,6.51297711 C16.7052168,6.413183 16.6240429,6.31482496 16.5399967,6.21897394 C16.3650406,6.01941006 16.1812734,5.82744028 15.9873321,5.64618011 C15.8864914,5.55191119 15.7837521,5.45963815 15.6781408,5.37072404 C15.6293877,5.32966241 15.5803669,5.28889287 15.5306402,5.24899957 C15.5057647,5.22904075 15.4808892,5.20910627 15.4557703,5.18943953 C15.3560736,5.11138106 15.5937539,5.2944424 15.4927915,5.21796604 C15.2805221,5.05722451 15.0610968,4.90575653 14.8337853,4.76701838 C14.6054272,4.62762305 14.3707893,4.49832884 14.1295066,4.38266503 C14.061671,4.35014676 13.9935676,4.31818831 13.9248314,4.28761723 C13.8953313,4.27447362 13.8658068,4.26135435 13.8361363,4.24860017 C13.7182576,4.1978999 13.9986303,4.3157543 13.879851,4.26692821 C13.759879,4.21763966 13.6389821,4.17054171 13.5167465,4.12719212 C12.9989124,3.94361965 12.4644055,3.81374127 11.9201625,3.73872531 C11.9805501,3.74683054 12.0409377,3.75496011 12.1013253,3.76306534 C11.9685406,3.74533397 11.8354247,3.73088521 11.7021002,3.71971905 Z M12.9634003,10.9731895 C12.9657857,10.601712 13.2716181,10.2916687 13.6449211,10.2916687 C14.0146217,10.2916687 14.3288271,10.6016633 14.3264418,10.9731895 C14.3209653,11.835727 13.9816166,12.6872628 13.3693433,13.2995361 C12.7600151,13.9088643 11.9191646,14.2733075 11.0547529,14.2788327 C9.7781185,14.2869866 8.53054618,13.5293546 8.01709334,12.3460886 C7.7327775,11.6908795 7.64615134,10.9951685 7.78669065,10.291401 C7.90921834,9.677789 8.22941138,9.0891011 8.67174267,8.64679414 C9.5839825,7.73457866 11.0264698,7.39605758 12.2306439,7.90099141 C12.8639713,8.16656543 13.3927341,8.57917755 13.7784748,9.1519957 C14.1378309,9.6856508 14.3223527,10.3317324 14.3264418,10.9731895 C14.3288271,11.3447156 14.0146217,11.6547102 13.6449211,11.6547102 C13.2716181,11.6547102 12.9657857,11.3446669 12.9634003,10.9731895 C12.9626945,10.8603734 12.9556115,10.7483606 12.9420055,10.6363965 C12.9501107,10.6967841 12.9582403,10.7571717 12.9663455,10.8175593 C12.9473359,10.6761925 12.9193936,10.5357505 12.8775044,10.399276 C12.8553063,10.3269861 12.8313314,10.2551587 12.8029509,10.1850594 C12.754855,10.0663044 12.8748757,10.3454115 12.8211086,10.2293826 C12.8075998,10.2002719 12.7941155,10.1711369 12.7795358,10.1425374 C12.7167872,10.0193282 12.6464445,9.8997456 12.5650271,9.7878545 C12.463797,9.6486783 12.6482214,9.8883789 12.5750552,9.7995864 C12.5548774,9.775076 12.5346751,9.7505656 12.513621,9.7268098 C12.4715371,9.6793224 12.4285283,9.6325652 12.3831098,9.5882177 C12.3301216,9.5364951 12.2758676,9.4859895 12.2186929,9.4388916 C12.1805034,9.4074199 12.0804172,9.3345946 12.2571015,9.4664202 C12.2316175,9.4473863 12.2061091,9.4283767 12.1799436,9.4102921 C12.066154,9.3316494 11.9473503,9.2597734 11.8224616,9.2000186 C11.7743414,9.1769929 11.6204881,9.1146094 11.8385991,9.202915 C11.8086852,9.1907937 11.7787226,9.1786724 11.7483706,9.1676707 C11.6873258,9.1455699 11.6257942,9.1245888 11.5632404,9.1070884 C11.4359664,9.0715276 11.307232,9.0450456 11.176234,9.0274235 C11.2366216,9.0355287 11.2970335,9.0436583 11.3573968,9.0517635 C11.1329817,9.024454 10.9081529,9.024454 10.6837379,9.0517635 C10.7441255,9.0436583 10.8045131,9.0355287 10.8649007,9.0274235 C10.7235338,9.046433 10.5831162,9.0743997 10.4466173,9.1162646 C10.3743518,9.1384383 10.3025244,9.1624132 10.2324251,9.1908181 C10.1136701,9.2388896 10.3927772,9.1188689 10.2767483,9.1726361 C10.2476376,9.1861448 10.2185026,9.1996535 10.1899031,9.2142088 C10.0666939,9.2769331 9.9471113,9.3473244 9.8352202,9.4287175 C9.696044,9.5299476 9.9357445,9.3455233 9.8469521,9.4186894 C9.8224417,9.4388673 9.7979313,9.4590695 9.7741755,9.4801236 C9.7266881,9.5222318 9.6799309,9.5652163 9.6355833,9.6106348 C9.5838608,9.6635987 9.5333796,9.717877 9.4862573,9.7750517 C9.4547856,9.8132412 9.3819846,9.913303 9.5138102,9.7366188 C9.4948006,9.7621028 9.4757667,9.7876111 9.4576821,9.8137767 C9.3790395,9.9275663 9.3071634,10.04637 9.2474086,10.1712586 C9.224383,10.2193545 9.1619995,10.3732322 9.2503051,10.1551212 C9.2381837,10.1850594 9.2260624,10.2149977 9.2150607,10.245374 C9.19296,10.3064188 9.1719789,10.3679504 9.1544784,10.4305042 C9.1188933,10.5578026 9.0924357,10.6865126 9.0747892,10.8175107 C9.0828944,10.7571231 9.091024,10.6967354 9.0991292,10.6363478 C9.0718197,10.8607629 9.0718197,11.0855917 9.0991292,11.3100311 C9.091024,11.2496435 9.0828944,11.1892315 9.0747892,11.1288439 C9.0937987,11.2702351 9.1217654,11.4106771 9.1636302,11.5471516 C9.185804,11.6194415 9.2097789,11.6912446 9.2381837,11.7613438 C9.2862553,11.8800988 9.1662346,11.6009917 9.2200017,11.7170206 C9.2335105,11.7461313 9.2470192,11.7752663 9.2615745,11.8038659 C9.3243231,11.9270751 9.3946901,12.0466333 9.4760832,12.1585487 C9.5773133,12.297725 9.392889,12.0580244 9.4660551,12.1468168 C9.4862573,12.1713272 9.5064352,12.1958133 9.5275136,12.2195935 C9.5695975,12.2670565 9.612582,12.3138381 9.6580005,12.3581613 C9.7109644,12.4098838 9.7652427,12.4603894 9.8224174,12.5075117 C9.8606069,12.5389833 9.9606687,12.6117843 9.7839845,12.4799588 C9.8094685,12.4989927 9.8349768,12.5180022 9.8611424,12.5360869 C9.974932,12.6147538 10.0937357,12.6866056 10.2186243,12.7463847 C10.2667202,12.769386 10.4205979,12.8317695 10.2024869,12.7434639 C10.2324008,12.7555852 10.2623634,12.7677065 10.2927154,12.7787082 C10.3537845,12.800809 10.4153161,12.8217901 10.4778699,12.8392906 C10.6051683,12.8748513 10.7339027,12.9013333 10.8648763,12.9189555 C10.8044887,12.9108502 10.7441011,12.9027207 10.6837135,12.8946154 C10.9081286,12.9219249 11.1329574,12.9219249 11.3573724,12.8946154 C11.2970092,12.9027207 11.2365972,12.9108502 11.1762096,12.9189555 C11.3175765,12.8999459 11.4580184,12.8720035 11.594493,12.8301144 C11.6667828,12.8079406 11.7385859,12.7839413 11.8087095,12.7555609 C11.9274645,12.707465 11.6483574,12.82751 11.7643863,12.7737185 C11.793497,12.7602098 11.8226077,12.7467254 11.8512315,12.7321458 C11.9744164,12.6694215 12.093999,12.5990545 12.2058901,12.5176615 C12.3450663,12.4164069 12.1053901,12.6008557 12.1941825,12.5276652 C12.2186686,12.5074873 12.243179,12.4872851 12.2669348,12.466231 C12.3144222,12.4241471 12.3611794,12.3811383 12.405527,12.3357198 C12.4572495,12.2827559 12.5077551,12.2284776 12.554853,12.1713029 C12.5863247,12.1331134 12.65915,12.0330272 12.5273001,12.2097358 C12.546334,12.1842274 12.5653679,12.1587191 12.5834525,12.1325779 C12.6620952,12.0187639 12.7339713,11.8999603 12.793726,11.7750959 C12.8167517,11.7269514 12.8791352,11.5730981 12.7908296,11.791209 C12.8029509,11.7612952 12.8150722,11.7313326 12.8260739,11.7009806 C12.8481747,11.6399358 12.8691558,11.5784042 12.8866562,11.5158503 C12.922217,11.3885763 12.948699,11.2598419 12.9663211,11.1288439 C12.9582159,11.1892315 12.9500864,11.2496435 12.9419811,11.3100311 C12.9556115,11.1980183 12.9626945,11.0860055 12.9634003,10.9731895 " />
</font>
</defs>
</svg>
